<svg width="45" height="40" viewBox="0 0 45 40" fill="none" xmlns="http://www.w3.org/2000/svg">
<path d="M19.7891 2.74206C20.2656 1.82018 19.9062 0.687362 18.9922 0.210798C18.0781 -0.265766 16.9375 0.0936098 16.4609 1.00768L9.1875 14.9999H2.5C1.11719 14.9999 0 16.1171 0 17.4999C0 18.8827 1.11719 19.9999 2.5 19.9999L6.55469 36.2109C7.10938 38.4375 9.10938 40 11.4062 40H33.5938C35.8906 40 37.8906 38.4375 38.4453 36.2109L42.5 19.9999C43.8828 19.9999 45 18.8827 45 17.4999C45 16.1171 43.8828 14.9999 42.5 14.9999H35.8125L28.5391 1.00768C28.0625 0.0936098 26.9297 -0.265766 26.0078 0.210798C25.0859 0.687362 24.7344 1.82018 25.2109 2.74206L31.5859 14.9999H13.4141L19.7891 2.74206ZM15 23.7499V31.25C15 31.9375 14.4375 32.5 13.75 32.5C13.0625 32.5 12.5 31.9375 12.5 31.25V23.7499C12.5 23.0624 13.0625 22.4999 13.75 22.4999C14.4375 22.4999 15 23.0624 15 23.7499ZM22.5 22.4999C23.1875 22.4999 23.75 23.0624 23.75 23.7499V31.25C23.75 31.9375 23.1875 32.5 22.5 32.5C21.8125 32.5 21.25 31.9375 21.25 31.25V23.7499C21.25 23.0624 21.8125 22.4999 22.5 22.4999ZM32.5 23.7499V31.25C32.5 31.9375 31.9375 32.5 31.25 32.5C30.5625 32.5 30 31.9375 30 31.25V23.7499C30 23.0624 30.5625 22.4999 31.25 22.4999C31.9375 22.4999 32.5 23.0624 32.5 23.7499Z" fill="#F8EEDF"/>
</svg>
