<svg width="25" height="25" viewBox="0 0 25 25" fill="none" xmlns="http://www.w3.org/2000/svg">
<path fill-rule="evenodd" clip-rule="evenodd" d="M12.5 25C14.1415 25 15.767 24.6767 17.2835 24.0485C18.8001 23.4203 20.1781 22.4996 21.3388 21.3388C22.4996 20.1781 23.4203 18.8001 24.0485 17.2835C24.6767 15.767 25 14.1415 25 12.5C25 10.8585 24.6767 9.23303 24.0485 7.71646C23.4203 6.19989 22.4996 4.8219 21.3388 3.66116C20.1781 2.50043 18.8001 1.57969 17.2835 0.951506C15.767 0.323322 14.1415 -2.44606e-08 12.5 0C9.18479 4.94004e-08 6.00537 1.31696 3.66117 3.66116C1.31696 6.00537 0 9.18479 0 12.5C0 15.8152 1.31696 18.9946 3.66117 21.3388C6.00537 23.683 9.18479 25 12.5 25ZM12.1778 17.5556L19.1222 9.22222L16.9889 7.44444L11.0167 14.6097L7.92639 11.5181L5.9625 13.4819L10.1292 17.6486L11.2042 18.7236L12.1778 17.5556Z" fill="#51AB5A"/>
</svg>
