<svg width="43" height="55" viewBox="0 0 43 55" fill="none" xmlns="http://www.w3.org/2000/svg">
<g clip-path="url(#clip0_38_7)">
<path d="M3.25211 9.53699L21.5 54.9649L39.7479 9.53699L3.25211 9.53699Z" fill="#FFE59F"/>
<path fill-rule="evenodd" clip-rule="evenodd" d="M39.6124 9.49118C39.9524 9.63085 36.1651 19.9363 31.1587 32.4945C26.1522 45.0526 21.8131 55.1314 21.4731 54.9917C21.1331 54.852 24.9203 44.5465 29.9268 31.9884C34.9332 19.4303 39.2724 9.35151 39.6124 9.49118Z" fill="#FFDA78"/>
<path d="M31.8876 22.1859C31.8876 25.0548 29.704 27.3804 27.0105 27.3804C24.317 27.3804 22.1335 25.0548 22.1335 22.1859C22.1335 19.3171 24.317 16.9915 27.0105 16.9915C29.704 16.9915 31.8876 19.3171 31.8876 22.1859Z" fill="#FA4663"/>
<path opacity="0.6" d="M25.5897 21.0608C24.9372 22.028 23.9063 22.4631 23.2869 22.0326C22.6676 21.6021 22.6945 20.4691 23.3469 19.5019C23.9994 18.5347 25.0303 18.0996 25.6496 18.5301C26.2689 18.9606 26.2421 20.0936 25.5897 21.0608Z" fill="white"/>
<path d="M17.0975 20.3288C16.1718 22.3854 13.8561 23.3266 11.9252 22.431C9.99429 21.5354 9.17939 19.1422 10.1051 17.0856C11.0307 15.029 13.3465 14.0878 15.2774 14.9834C17.2083 15.879 18.0232 18.2722 17.0975 20.3288Z" fill="#FA4663"/>
<path opacity="0.6" d="M12.9458 17.4282C12.166 17.9046 11.2865 17.8737 10.9815 17.3592C10.6764 16.8447 11.0612 16.0413 11.841 15.5649C12.6208 15.0885 13.5003 15.1194 13.8054 15.6339C14.1104 16.1484 13.7256 16.9518 12.9458 17.4282Z" fill="white"/>
<path d="M17.4445 27.3175C17.1134 28.053 16.2853 28.3895 15.5948 28.0693C14.9042 27.749 14.6128 26.8931 14.9438 26.1576C15.2749 25.4222 16.103 25.0856 16.7936 25.4058C17.4841 25.7261 17.7755 26.582 17.4445 27.3175Z" fill="#A6B153"/>
<path d="M17.9926 38.1301C18.9122 40.1805 21.2279 41.1118 23.165 40.21C25.102 39.3083 25.9269 36.9151 25.0073 34.8647C24.0878 32.8142 21.7721 31.883 19.835 32.7847C17.898 33.6864 17.0731 36.0796 17.9926 38.1301Z" fill="#FA4663"/>
<path opacity="0.6" d="M22.1522 35.2221C22.9301 35.6965 23.8096 35.6622 24.1165 35.1456C24.4234 34.629 24.0415 33.8256 23.2636 33.3513C22.4856 32.877 21.6062 32.9112 21.2993 33.4278C20.9924 33.9445 21.3742 34.7478 22.1522 35.2221Z" fill="white"/>
<path d="M32.868 15.6191C32.5369 16.3546 31.7088 16.6912 31.0182 16.3709C30.3277 16.0506 30.0363 15.1948 30.3673 14.4593C30.6984 13.7238 31.5265 13.3872 32.2171 13.7075C32.9076 14.0278 33.199 14.8836 32.868 15.6191Z" fill="#A6B153"/>
<path d="M20.5822 45.8806C20.2512 46.6161 19.423 46.9527 18.7325 46.6324C18.042 46.3121 17.7505 45.4562 18.0816 44.7207C18.4126 43.9853 19.2408 43.6487 19.9313 43.969C20.6219 44.2892 20.9133 45.1451 20.5822 45.8806Z" fill="#A6B153"/>
<path d="M28.8932 31.942C28.5621 32.6775 27.734 33.0141 27.0435 32.6938C26.3529 32.3735 26.0615 31.5176 26.3925 30.7821C26.7236 30.0467 27.5517 29.7101 28.2423 30.0304C28.9328 30.3506 29.2242 31.2065 28.8932 31.942Z" fill="#FA4663"/>
<path d="M22.389 14.8855C22.0579 15.621 21.2298 15.9575 20.5392 15.6373C19.8487 15.317 19.5573 14.4611 19.8883 13.7256C20.2194 12.9901 21.0475 12.6536 21.7381 12.9738C22.4286 13.2941 22.72 14.15 22.389 14.8855Z" fill="#FA4663"/>
<path d="M10.4646 14.5186C10.1336 15.2541 9.3054 15.5907 8.61487 15.2704C7.92433 14.9502 7.6329 14.0943 7.96395 13.3588C8.29499 12.6233 9.12314 12.2867 9.81368 12.607C10.5042 12.9273 10.7956 13.7832 10.4646 14.5186Z" fill="#FA4663"/>
<path fill-rule="evenodd" clip-rule="evenodd" d="M2.4455 7.99386C2.78465 7.85208 7.33166 18.2661 12.5951 31.2394C17.8585 44.2127 21.855 54.8568 21.5159 54.9986C21.1767 55.1404 16.6297 44.7264 11.3663 31.7531C6.10286 18.7798 2.10635 8.13565 2.4455 7.99386Z" fill="#FFDA78"/>
<path fill-rule="evenodd" clip-rule="evenodd" d="M3.7038 11.1877C3.66906 11.0109 4.09174 10.7469 4.89796 10.4363C5.70419 10.1257 6.8945 9.76988 8.39211 9.43059C9.88973 9.09131 11.695 8.76975 13.7216 8.52914C15.7483 8.28854 17.9964 8.1298 20.3682 8.1018C20.6783 8.09815 20.9906 8.09669 21.3047 8.09751C23.7854 8.10407 26.1477 8.2545 28.2832 8.49727C30.4187 8.74003 32.3271 9.07409 33.913 9.43008C35.4989 9.78608 36.7625 10.1626 37.6192 10.4908C38.476 10.8189 38.9265 11.097 38.8897 11.2794C38.8529 11.4617 38.333 11.5315 37.4277 11.5225C36.5223 11.5135 35.231 11.4274 33.6442 11.318C32.0575 11.2086 30.1751 11.0771 28.087 10.9752C25.9989 10.8733 23.7051 10.8019 21.2978 10.7955C20.993 10.7947 20.69 10.795 20.3889 10.7962C18.0871 10.8053 15.9024 10.8732 13.9185 10.9664C11.9346 11.0596 10.1515 11.1774 8.65112 11.2726C7.15072 11.3677 5.93273 11.4391 5.07979 11.4386C4.22685 11.4382 3.73854 11.3644 3.7038 11.1877Z" fill="#FFDA78"/>
<path d="M2.70473 1.10047C15.2349 -0.317963 27.7651 -0.414886 40.2953 1.10047C41.7832 1.28041 43 2.32502 43 3.84609V8.44204C43 9.96311 41.7843 11.3581 40.2953 11.1877C27.7651 9.75311 15.2349 9.44933 2.70473 11.1877C1.22011 11.3936 0 9.96311 0 8.44204L0 3.84609C0 2.32502 1.21554 1.26905 2.70473 1.10047Z" fill="#DDAC84"/>
<path d="M19.8759 22.3597C19.7015 22.747 19.2654 22.9243 18.9018 22.7556C18.5381 22.5869 18.3846 22.1362 18.559 21.7489C18.7333 21.3616 19.1694 21.1843 19.5331 21.353C19.8967 21.5217 20.0502 21.9724 19.8759 22.3597Z" fill="#FFDA78"/>
<path d="M34.2635 17.637C34.0892 18.0244 33.653 18.2016 33.2894 18.0329C32.9257 17.8643 32.7723 17.4136 32.9466 17.0263C33.1209 16.6389 33.5571 16.4617 33.9207 16.6303C34.2844 16.799 34.4378 17.2497 34.2635 17.637Z" fill="#FFDA78"/>
<path d="M21.2551 30.2919C21.0807 30.6793 20.6446 30.8565 20.281 30.6879C19.9173 30.5192 19.7639 30.0685 19.9382 29.6812C20.1125 29.2938 20.5486 29.1166 20.9123 29.2853C21.2759 29.4539 21.4294 29.9046 21.2551 30.2919Z" fill="#FFDA78"/>
<path d="M15.4736 31.9426C15.2992 32.3299 14.8631 32.5072 14.4995 32.3385C14.1358 32.1698 13.9824 31.7191 14.1567 31.3318C14.331 30.9445 14.7671 30.7672 15.1308 30.9359C15.4944 31.1046 15.6479 31.5553 15.4736 31.9426Z" fill="#FFDA78"/>
<path d="M22.1585 44.2305C21.9841 44.6179 21.548 44.7951 21.1844 44.6265C20.8207 44.4578 20.6672 44.0071 20.8416 43.6198C21.0159 43.2324 21.452 43.0552 21.8157 43.2239C22.1793 43.3925 22.3328 43.8432 22.1585 44.2305Z" fill="#FFDA78"/>
<path opacity="0.6" d="M3.11474 4.94939C2.4623 5.91658 1.43134 6.35166 0.812024 5.92117C0.192709 5.49067 0.21956 4.35762 0.871999 3.39042C1.52444 2.42323 2.5554 1.98815 3.17472 2.41864C3.79403 2.84914 3.76718 3.98219 3.11474 4.94939Z" fill="white"/>
</g>
<defs>
<clipPath id="clip0_38_7">
<rect width="43" height="55" fill="white"/>
</clipPath>
</defs>
</svg>
